<svg width="49" height="48" viewBox="0 0 49 48" fill="none" xmlns="http://www.w3.org/2000/svg">
<rect x="0.333374" width="48" height="48" rx="24" fill="#1A1D1F"/>
<path d="M28.3401 15H19.2533C18.562 15 18 15.562 18 16.2533V31.2935C18 31.9848 18.562 32.5469 19.2533 32.5469H28.3401C29.0314 32.5469 29.5935 31.9848 29.5935 31.2935V16.2533C29.5935 15.562 29.0314 15 28.3401 15ZM28.1835 31.1369H19.41V16.41H28.1835V31.1369ZM23.0134 29.1393C23.0134 29.3471 23.0959 29.5463 23.2428 29.6932C23.3897 29.8401 23.589 29.9227 23.7967 29.9227C24.0045 29.9227 24.2037 29.8401 24.3506 29.6932C24.4975 29.5463 24.5801 29.3471 24.5801 29.1393C24.5801 28.9316 24.4975 28.7323 24.3506 28.5854C24.2037 28.4385 24.0045 28.356 23.7967 28.356C23.589 28.356 23.3897 28.4385 23.2428 28.5854C23.0959 28.7323 23.0134 28.9316 23.0134 29.1393Z" fill="white"/>
</svg>
