<svg width="49" height="48" viewBox="0 0 49 48" fill="none" xmlns="http://www.w3.org/2000/svg">
<rect x="0.666748" width="48" height="48" rx="24" fill="#1A1D1F"/>
<mask id="path-2-outside-1_305_635" maskUnits="userSpaceOnUse" x="15.2656" y="14" width="20" height="20" fill="black">
<rect fill="white" x="15.2656" y="14" width="20" height="20"/>
<path d="M16.4774 23.7006C16.5897 23.7847 16.7309 23.8208 16.8699 23.801C17.0089 23.7811 17.1343 23.707 17.2186 23.5949C17.6619 23.0055 18.2364 22.5269 18.8967 22.1971C19.5571 21.8672 20.2853 21.6951 21.0237 21.6942C21.7622 21.6934 22.4907 21.8638 23.1519 22.1922C23.813 22.5205 24.3886 22.9977 24.8333 23.5861L24.8774 23.6389L24.9127 23.6742H24.9215L24.948 23.6918L25.0097 23.7358H25.0362L25.098 23.7622H25.1156L25.1686 23.7798H25.4421L25.495 23.7534H25.5127L25.548 23.7358L25.5656 23.7182H25.5921C25.6009 23.7182 25.6009 23.7094 25.6097 23.7006L25.6362 23.6742H25.6539L25.6892 23.6301C26.133 23.0395 26.7085 22.5602 27.3701 22.23C28.0317 21.8999 28.7612 21.728 29.5009 21.728C30.2406 21.728 30.9702 21.8999 31.6318 22.23C32.2934 22.5602 32.8689 23.0395 33.3127 23.6301C33.3969 23.7422 33.5223 23.8164 33.6613 23.8362C33.8003 23.856 33.9415 23.8199 34.0539 23.7358C34.1095 23.6942 34.1563 23.642 34.1918 23.5823C34.2272 23.5226 34.2505 23.4565 34.2603 23.3878C34.2701 23.3191 34.2663 23.2492 34.2491 23.182C34.2318 23.1148 34.2015 23.0516 34.1597 22.9961C33.4912 22.106 32.5821 21.4248 31.5392 21.0323C31.954 20.7188 32.2891 20.3124 32.5175 19.8458C32.7459 19.3793 32.8611 18.8656 32.8539 18.3464C32.8539 17.4589 32.5006 16.6077 31.8718 15.9801C31.243 15.3526 30.3902 15 29.5009 15C28.6117 15 27.7588 15.3526 27.13 15.9801C26.5012 16.6077 26.148 17.4589 26.148 18.3464C26.1463 18.8597 26.2641 19.3663 26.4923 19.8264C26.7205 20.2864 27.0527 20.6872 27.4627 20.9971C26.6262 21.3069 25.8739 21.8075 25.2656 22.4589C24.6574 21.8075 23.905 21.3069 23.0686 20.9971C23.4786 20.6872 23.8108 20.2864 24.0389 19.8264C24.2671 19.3663 24.385 18.8597 24.3833 18.3464C24.3833 17.4589 24.03 16.6077 23.4012 15.9801C22.7724 15.3526 21.9196 15 21.0303 15C20.1411 15 19.2882 15.3526 18.6594 15.9801C18.0306 16.6077 17.6774 17.4589 17.6774 18.3464C17.6757 18.8597 17.7936 19.3663 18.0217 19.8264C18.2499 20.2864 18.5821 20.6872 18.9921 20.9971C17.9492 21.3896 17.0401 22.0708 16.3715 22.9609C16.2873 23.073 16.2511 23.2139 16.2709 23.3526C16.2908 23.4913 16.3651 23.6165 16.4774 23.7006ZM27.2068 18.3464C27.2068 17.8935 27.3413 17.4509 27.5934 17.0743C27.8455 16.6978 28.2038 16.4043 28.623 16.231C29.0422 16.0577 29.5035 16.0124 29.9485 16.1007C30.3935 16.1891 30.8023 16.4072 31.1231 16.7274C31.4439 17.0476 31.6624 17.4556 31.751 17.8997C31.8395 18.3438 31.794 18.8042 31.6204 19.2226C31.4468 19.641 31.1527 19.9985 30.7755 20.2501C30.3982 20.5017 29.9547 20.636 29.5009 20.636C28.8932 20.6337 28.311 20.3917 27.8813 19.9628C27.4516 19.5339 27.2091 18.9529 27.2068 18.3464ZM18.7362 18.3464C18.7362 17.8935 18.8708 17.4509 19.1228 17.0743C19.3749 16.6978 19.7332 16.4043 20.1524 16.231C20.5716 16.0577 21.0329 16.0124 21.4779 16.1007C21.9229 16.1891 22.3317 16.4072 22.6525 16.7274C22.9734 17.0476 23.1918 17.4556 23.2804 17.8997C23.3689 18.3438 23.3235 18.8042 23.1498 19.2226C22.9762 19.641 22.6821 19.9985 22.3049 20.2501C21.9276 20.5017 21.4841 20.636 21.0303 20.636C20.4226 20.6337 19.8404 20.3917 19.4107 19.9628C18.981 19.5339 18.7385 18.9529 18.7362 18.3464ZM31.5392 30.1556C31.9492 29.8457 32.2814 29.4449 32.5095 28.9849C32.7377 28.5249 32.8556 28.0182 32.8539 27.5049C32.8539 26.6174 32.5006 25.7662 31.8718 25.1386C31.243 24.5111 30.3902 24.1585 29.5009 24.1585C28.6117 24.1585 27.7588 24.5111 27.13 25.1386C26.5012 25.7662 26.148 26.6174 26.148 27.5049C26.1463 28.0182 26.2641 28.5249 26.4923 28.9849C26.7205 29.4449 27.0527 29.8457 27.4627 30.1556C26.6262 30.4654 25.8739 30.966 25.2656 31.6174C24.6574 30.966 23.905 30.4654 23.0686 30.1556C23.4786 29.8457 23.8108 29.4449 24.0389 28.9849C24.2671 28.5249 24.385 28.0182 24.3833 27.5049C24.3833 26.6174 24.03 25.7662 23.4012 25.1386C22.7724 24.5111 21.9196 24.1585 21.0303 24.1585C20.1411 24.1585 19.2882 24.5111 18.6594 25.1386C18.0306 25.7662 17.6774 26.6174 17.6774 27.5049C17.6757 28.0182 17.7936 28.5249 18.0217 28.9849C18.2499 29.4449 18.5821 29.8457 18.9921 30.1556C17.9492 30.5481 17.0401 31.2293 16.3715 32.1194C16.3298 32.1749 16.2994 32.238 16.2822 32.3053C16.2649 32.3725 16.2611 32.4424 16.2709 32.5111C16.2808 32.5798 16.3041 32.6459 16.3395 32.7056C16.3749 32.7653 16.4218 32.8175 16.4774 32.8591C16.533 32.9007 16.5963 32.931 16.6636 32.9482C16.731 32.9655 16.8011 32.9693 16.8699 32.9595C16.9387 32.9496 17.0049 32.9264 17.0648 32.8911C17.1246 32.8557 17.1769 32.8089 17.2186 32.7534C17.6619 32.164 18.2364 31.6854 18.8967 31.3556C19.5571 31.0257 20.2853 30.8536 21.0237 30.8527C21.7622 30.8519 22.4907 31.0223 23.1519 31.3507C23.813 31.679 24.3886 32.1562 24.8333 32.7446L24.8774 32.7975L24.9127 32.8327H24.9215L24.948 32.8503L25.0097 32.8943H25.0362L25.098 32.9207H25.1156L25.1686 32.9384H25.4421L25.495 32.9119H25.5127L25.548 32.8943L25.5656 32.8767H25.5921C25.6009 32.8767 25.6009 32.8679 25.6097 32.8591L25.6362 32.8327H25.6539L25.6892 32.7886C26.133 32.198 26.7085 31.7187 27.3701 31.3885C28.0317 31.0584 28.7612 30.8865 29.5009 30.8865C30.2406 30.8865 30.9702 31.0584 31.6318 31.3885C32.2934 31.7187 32.8689 32.198 33.3127 32.7886C33.3969 32.9008 33.5223 32.9749 33.6613 32.9947C33.8003 33.0145 33.9415 32.9784 34.0539 32.8943C34.1662 32.8102 34.2404 32.6851 34.2603 32.5463C34.2802 32.4076 34.244 32.2667 34.1597 32.1546C33.496 31.2515 32.5865 30.5577 31.5392 30.1556ZM18.7362 27.5049C18.7362 27.052 18.8708 26.6094 19.1228 26.2328C19.3749 25.8563 19.7332 25.5628 20.1524 25.3896C20.5716 25.2163 21.0329 25.1709 21.4779 25.2593C21.9229 25.3476 22.3317 25.5657 22.6525 25.8859C22.9734 26.2061 23.1918 26.6141 23.2804 27.0582C23.3689 27.5024 23.3235 27.9627 23.1498 28.3811C22.9762 28.7995 22.6821 29.1571 22.3049 29.4086C21.9276 29.6602 21.4841 29.7945 21.0303 29.7945C20.4226 29.7922 19.8404 29.5502 19.4107 29.1213C18.981 28.6925 18.7385 28.1114 18.7362 27.5049ZM27.2068 27.5049C27.2068 27.052 27.3413 26.6094 27.5934 26.2328C27.8455 25.8563 28.2038 25.5628 28.623 25.3896C29.0422 25.2163 29.5035 25.1709 29.9485 25.2593C30.3935 25.3476 30.8023 25.5657 31.1231 25.8859C31.4439 26.2061 31.6624 26.6141 31.751 27.0582C31.8395 27.5024 31.794 27.9627 31.6204 28.3811C31.4468 28.7995 31.1527 29.1571 30.7755 29.4086C30.3982 29.6602 29.9547 29.7945 29.5009 29.7945C28.8932 29.7922 28.311 29.5502 27.8813 29.1213C27.4516 28.6925 27.2091 28.1114 27.2068 27.5049Z"/>
</mask>
<path d="M16.4774 23.7006C16.5897 23.7847 16.7309 23.8208 16.8699 23.801C17.0089 23.7811 17.1343 23.707 17.2186 23.5949C17.6619 23.0055 18.2364 22.5269 18.8967 22.1971C19.5571 21.8672 20.2853 21.6951 21.0237 21.6942C21.7622 21.6934 22.4907 21.8638 23.1519 22.1922C23.813 22.5205 24.3886 22.9977 24.8333 23.5861L24.8774 23.6389L24.9127 23.6742H24.9215L24.948 23.6918L25.0097 23.7358H25.0362L25.098 23.7622H25.1156L25.1686 23.7798H25.4421L25.495 23.7534H25.5127L25.548 23.7358L25.5656 23.7182H25.5921C25.6009 23.7182 25.6009 23.7094 25.6097 23.7006L25.6362 23.6742H25.6539L25.6892 23.6301C26.133 23.0395 26.7085 22.5602 27.3701 22.23C28.0317 21.8999 28.7612 21.728 29.5009 21.728C30.2406 21.728 30.9702 21.8999 31.6318 22.23C32.2934 22.5602 32.8689 23.0395 33.3127 23.6301C33.3969 23.7422 33.5223 23.8164 33.6613 23.8362C33.8003 23.856 33.9415 23.8199 34.0539 23.7358C34.1095 23.6942 34.1563 23.642 34.1918 23.5823C34.2272 23.5226 34.2505 23.4565 34.2603 23.3878C34.2701 23.3191 34.2663 23.2492 34.2491 23.182C34.2318 23.1148 34.2015 23.0516 34.1597 22.9961C33.4912 22.106 32.5821 21.4248 31.5392 21.0323C31.954 20.7188 32.2891 20.3124 32.5175 19.8458C32.7459 19.3793 32.8611 18.8656 32.8539 18.3464C32.8539 17.4589 32.5006 16.6077 31.8718 15.9801C31.243 15.3526 30.3902 15 29.5009 15C28.6117 15 27.7588 15.3526 27.13 15.9801C26.5012 16.6077 26.148 17.4589 26.148 18.3464C26.1463 18.8597 26.2641 19.3663 26.4923 19.8264C26.7205 20.2864 27.0527 20.6872 27.4627 20.9971C26.6262 21.3069 25.8739 21.8075 25.2656 22.4589C24.6574 21.8075 23.905 21.3069 23.0686 20.9971C23.4786 20.6872 23.8108 20.2864 24.0389 19.8264C24.2671 19.3663 24.385 18.8597 24.3833 18.3464C24.3833 17.4589 24.03 16.6077 23.4012 15.9801C22.7724 15.3526 21.9196 15 21.0303 15C20.1411 15 19.2882 15.3526 18.6594 15.9801C18.0306 16.6077 17.6774 17.4589 17.6774 18.3464C17.6757 18.8597 17.7936 19.3663 18.0217 19.8264C18.2499 20.2864 18.5821 20.6872 18.9921 20.9971C17.9492 21.3896 17.0401 22.0708 16.3715 22.9609C16.2873 23.073 16.2511 23.2139 16.2709 23.3526C16.2908 23.4913 16.3651 23.6165 16.4774 23.7006ZM27.2068 18.3464C27.2068 17.8935 27.3413 17.4509 27.5934 17.0743C27.8455 16.6978 28.2038 16.4043 28.623 16.231C29.0422 16.0577 29.5035 16.0124 29.9485 16.1007C30.3935 16.1891 30.8023 16.4072 31.1231 16.7274C31.4439 17.0476 31.6624 17.4556 31.751 17.8997C31.8395 18.3438 31.794 18.8042 31.6204 19.2226C31.4468 19.641 31.1527 19.9985 30.7755 20.2501C30.3982 20.5017 29.9547 20.636 29.5009 20.636C28.8932 20.6337 28.311 20.3917 27.8813 19.9628C27.4516 19.5339 27.2091 18.9529 27.2068 18.3464ZM18.7362 18.3464C18.7362 17.8935 18.8708 17.4509 19.1228 17.0743C19.3749 16.6978 19.7332 16.4043 20.1524 16.231C20.5716 16.0577 21.0329 16.0124 21.4779 16.1007C21.9229 16.1891 22.3317 16.4072 22.6525 16.7274C22.9734 17.0476 23.1918 17.4556 23.2804 17.8997C23.3689 18.3438 23.3235 18.8042 23.1498 19.2226C22.9762 19.641 22.6821 19.9985 22.3049 20.2501C21.9276 20.5017 21.4841 20.636 21.0303 20.636C20.4226 20.6337 19.8404 20.3917 19.4107 19.9628C18.981 19.5339 18.7385 18.9529 18.7362 18.3464ZM31.5392 30.1556C31.9492 29.8457 32.2814 29.4449 32.5095 28.9849C32.7377 28.5249 32.8556 28.0182 32.8539 27.5049C32.8539 26.6174 32.5006 25.7662 31.8718 25.1386C31.243 24.5111 30.3902 24.1585 29.5009 24.1585C28.6117 24.1585 27.7588 24.5111 27.13 25.1386C26.5012 25.7662 26.148 26.6174 26.148 27.5049C26.1463 28.0182 26.2641 28.5249 26.4923 28.9849C26.7205 29.4449 27.0527 29.8457 27.4627 30.1556C26.6262 30.4654 25.8739 30.966 25.2656 31.6174C24.6574 30.966 23.905 30.4654 23.0686 30.1556C23.4786 29.8457 23.8108 29.4449 24.0389 28.9849C24.2671 28.5249 24.385 28.0182 24.3833 27.5049C24.3833 26.6174 24.03 25.7662 23.4012 25.1386C22.7724 24.5111 21.9196 24.1585 21.0303 24.1585C20.1411 24.1585 19.2882 24.5111 18.6594 25.1386C18.0306 25.7662 17.6774 26.6174 17.6774 27.5049C17.6757 28.0182 17.7936 28.5249 18.0217 28.9849C18.2499 29.4449 18.5821 29.8457 18.9921 30.1556C17.9492 30.5481 17.0401 31.2293 16.3715 32.1194C16.3298 32.1749 16.2994 32.238 16.2822 32.3053C16.2649 32.3725 16.2611 32.4424 16.2709 32.5111C16.2808 32.5798 16.3041 32.6459 16.3395 32.7056C16.3749 32.7653 16.4218 32.8175 16.4774 32.8591C16.533 32.9007 16.5963 32.931 16.6636 32.9482C16.731 32.9655 16.8011 32.9693 16.8699 32.9595C16.9387 32.9496 17.0049 32.9264 17.0648 32.8911C17.1246 32.8557 17.1769 32.8089 17.2186 32.7534C17.6619 32.164 18.2364 31.6854 18.8967 31.3556C19.5571 31.0257 20.2853 30.8536 21.0237 30.8527C21.7622 30.8519 22.4907 31.0223 23.1519 31.3507C23.813 31.679 24.3886 32.1562 24.8333 32.7446L24.8774 32.7975L24.9127 32.8327H24.9215L24.948 32.8503L25.0097 32.8943H25.0362L25.098 32.9207H25.1156L25.1686 32.9384H25.4421L25.495 32.9119H25.5127L25.548 32.8943L25.5656 32.8767H25.5921C25.6009 32.8767 25.6009 32.8679 25.6097 32.8591L25.6362 32.8327H25.6539L25.6892 32.7886C26.133 32.198 26.7085 31.7187 27.3701 31.3885C28.0317 31.0584 28.7612 30.8865 29.5009 30.8865C30.2406 30.8865 30.9702 31.0584 31.6318 31.3885C32.2934 31.7187 32.8689 32.198 33.3127 32.7886C33.3969 32.9008 33.5223 32.9749 33.6613 32.9947C33.8003 33.0145 33.9415 32.9784 34.0539 32.8943C34.1662 32.8102 34.2404 32.6851 34.2603 32.5463C34.2802 32.4076 34.244 32.2667 34.1597 32.1546C33.496 31.2515 32.5865 30.5577 31.5392 30.1556ZM18.7362 27.5049C18.7362 27.052 18.8708 26.6094 19.1228 26.2328C19.3749 25.8563 19.7332 25.5628 20.1524 25.3896C20.5716 25.2163 21.0329 25.1709 21.4779 25.2593C21.9229 25.3476 22.3317 25.5657 22.6525 25.8859C22.9734 26.2061 23.1918 26.6141 23.2804 27.0582C23.3689 27.5024 23.3235 27.9627 23.1498 28.3811C22.9762 28.7995 22.6821 29.1571 22.3049 29.4086C21.9276 29.6602 21.4841 29.7945 21.0303 29.7945C20.4226 29.7922 19.8404 29.5502 19.4107 29.1213C18.981 28.6925 18.7385 28.1114 18.7362 27.5049ZM27.2068 27.5049C27.2068 27.052 27.3413 26.6094 27.5934 26.2328C27.8455 25.8563 28.2038 25.5628 28.623 25.3896C29.0422 25.2163 29.5035 25.1709 29.9485 25.2593C30.3935 25.3476 30.8023 25.5657 31.1231 25.8859C31.4439 26.2061 31.6624 26.6141 31.751 27.0582C31.8395 27.5024 31.794 27.9627 31.6204 28.3811C31.4468 28.7995 31.1527 29.1571 30.7755 29.4086C30.3982 29.6602 29.9547 29.7945 29.5009 29.7945C28.8932 29.7922 28.311 29.5502 27.8813 29.1213C27.4516 28.6925 27.2091 28.1114 27.2068 27.5049Z" fill="white"/>
<path d="M16.4774 23.7006C16.5897 23.7847 16.7309 23.8208 16.8699 23.801C17.0089 23.7811 17.1343 23.707 17.2186 23.5949C17.6619 23.0055 18.2364 22.5269 18.8967 22.1971C19.5571 21.8672 20.2853 21.6951 21.0237 21.6942C21.7622 21.6934 22.4907 21.8638 23.1519 22.1922C23.813 22.5205 24.3886 22.9977 24.8333 23.5861L24.8774 23.6389L24.9127 23.6742H24.9215L24.948 23.6918L25.0097 23.7358H25.0362L25.098 23.7622H25.1156L25.1686 23.7798H25.4421L25.495 23.7534H25.5127L25.548 23.7358L25.5656 23.7182H25.5921C25.6009 23.7182 25.6009 23.7094 25.6097 23.7006L25.6362 23.6742H25.6539L25.6892 23.6301C26.133 23.0395 26.7085 22.5602 27.3701 22.23C28.0317 21.8999 28.7612 21.728 29.5009 21.728C30.2406 21.728 30.9702 21.8999 31.6318 22.23C32.2934 22.5602 32.8689 23.0395 33.3127 23.6301C33.3969 23.7422 33.5223 23.8164 33.6613 23.8362C33.8003 23.856 33.9415 23.8199 34.0539 23.7358C34.1095 23.6942 34.1563 23.642 34.1918 23.5823C34.2272 23.5226 34.2505 23.4565 34.2603 23.3878C34.2701 23.3191 34.2663 23.2492 34.2491 23.182C34.2318 23.1148 34.2015 23.0516 34.1597 22.9961C33.4912 22.106 32.5821 21.4248 31.5392 21.0323C31.954 20.7188 32.2891 20.3124 32.5175 19.8458C32.7459 19.3793 32.8611 18.8656 32.8539 18.3464C32.8539 17.4589 32.5006 16.6077 31.8718 15.9801C31.243 15.3526 30.3902 15 29.5009 15C28.6117 15 27.7588 15.3526 27.13 15.9801C26.5012 16.6077 26.148 17.4589 26.148 18.3464C26.1463 18.8597 26.2641 19.3663 26.4923 19.8264C26.7205 20.2864 27.0527 20.6872 27.4627 20.9971C26.6262 21.3069 25.8739 21.8075 25.2656 22.4589C24.6574 21.8075 23.905 21.3069 23.0686 20.9971C23.4786 20.6872 23.8108 20.2864 24.0389 19.8264C24.2671 19.3663 24.385 18.8597 24.3833 18.3464C24.3833 17.4589 24.03 16.6077 23.4012 15.9801C22.7724 15.3526 21.9196 15 21.0303 15C20.1411 15 19.2882 15.3526 18.6594 15.9801C18.0306 16.6077 17.6774 17.4589 17.6774 18.3464C17.6757 18.8597 17.7936 19.3663 18.0217 19.8264C18.2499 20.2864 18.5821 20.6872 18.9921 20.9971C17.9492 21.3896 17.0401 22.0708 16.3715 22.9609C16.2873 23.073 16.2511 23.2139 16.2709 23.3526C16.2908 23.4913 16.3651 23.6165 16.4774 23.7006ZM27.2068 18.3464C27.2068 17.8935 27.3413 17.4509 27.5934 17.0743C27.8455 16.6978 28.2038 16.4043 28.623 16.231C29.0422 16.0577 29.5035 16.0124 29.9485 16.1007C30.3935 16.1891 30.8023 16.4072 31.1231 16.7274C31.4439 17.0476 31.6624 17.4556 31.751 17.8997C31.8395 18.3438 31.794 18.8042 31.6204 19.2226C31.4468 19.641 31.1527 19.9985 30.7755 20.2501C30.3982 20.5017 29.9547 20.636 29.5009 20.636C28.8932 20.6337 28.311 20.3917 27.8813 19.9628C27.4516 19.5339 27.2091 18.9529 27.2068 18.3464ZM18.7362 18.3464C18.7362 17.8935 18.8708 17.4509 19.1228 17.0743C19.3749 16.6978 19.7332 16.4043 20.1524 16.231C20.5716 16.0577 21.0329 16.0124 21.4779 16.1007C21.9229 16.1891 22.3317 16.4072 22.6525 16.7274C22.9734 17.0476 23.1918 17.4556 23.2804 17.8997C23.3689 18.3438 23.3235 18.8042 23.1498 19.2226C22.9762 19.641 22.6821 19.9985 22.3049 20.2501C21.9276 20.5017 21.4841 20.636 21.0303 20.636C20.4226 20.6337 19.8404 20.3917 19.4107 19.9628C18.981 19.5339 18.7385 18.9529 18.7362 18.3464ZM31.5392 30.1556C31.9492 29.8457 32.2814 29.4449 32.5095 28.9849C32.7377 28.5249 32.8556 28.0182 32.8539 27.5049C32.8539 26.6174 32.5006 25.7662 31.8718 25.1386C31.243 24.5111 30.3902 24.1585 29.5009 24.1585C28.6117 24.1585 27.7588 24.5111 27.13 25.1386C26.5012 25.7662 26.148 26.6174 26.148 27.5049C26.1463 28.0182 26.2641 28.5249 26.4923 28.9849C26.7205 29.4449 27.0527 29.8457 27.4627 30.1556C26.6262 30.4654 25.8739 30.966 25.2656 31.6174C24.6574 30.966 23.905 30.4654 23.0686 30.1556C23.4786 29.8457 23.8108 29.4449 24.0389 28.9849C24.2671 28.5249 24.385 28.0182 24.3833 27.5049C24.3833 26.6174 24.03 25.7662 23.4012 25.1386C22.7724 24.5111 21.9196 24.1585 21.0303 24.1585C20.1411 24.1585 19.2882 24.5111 18.6594 25.1386C18.0306 25.7662 17.6774 26.6174 17.6774 27.5049C17.6757 28.0182 17.7936 28.5249 18.0217 28.9849C18.2499 29.4449 18.5821 29.8457 18.9921 30.1556C17.9492 30.5481 17.0401 31.2293 16.3715 32.1194C16.3298 32.1749 16.2994 32.238 16.2822 32.3053C16.2649 32.3725 16.2611 32.4424 16.2709 32.5111C16.2808 32.5798 16.3041 32.6459 16.3395 32.7056C16.3749 32.7653 16.4218 32.8175 16.4774 32.8591C16.533 32.9007 16.5963 32.931 16.6636 32.9482C16.731 32.9655 16.8011 32.9693 16.8699 32.9595C16.9387 32.9496 17.0049 32.9264 17.0648 32.8911C17.1246 32.8557 17.1769 32.8089 17.2186 32.7534C17.6619 32.164 18.2364 31.6854 18.8967 31.3556C19.5571 31.0257 20.2853 30.8536 21.0237 30.8527C21.7622 30.8519 22.4907 31.0223 23.1519 31.3507C23.813 31.679 24.3886 32.1562 24.8333 32.7446L24.8774 32.7975L24.9127 32.8327H24.9215L24.948 32.8503L25.0097 32.8943H25.0362L25.098 32.9207H25.1156L25.1686 32.9384H25.4421L25.495 32.9119H25.5127L25.548 32.8943L25.5656 32.8767H25.5921C25.6009 32.8767 25.6009 32.8679 25.6097 32.8591L25.6362 32.8327H25.6539L25.6892 32.7886C26.133 32.198 26.7085 31.7187 27.3701 31.3885C28.0317 31.0584 28.7612 30.8865 29.5009 30.8865C30.2406 30.8865 30.9702 31.0584 31.6318 31.3885C32.2934 31.7187 32.8689 32.198 33.3127 32.7886C33.3969 32.9008 33.5223 32.9749 33.6613 32.9947C33.8003 33.0145 33.9415 32.9784 34.0539 32.8943C34.1662 32.8102 34.2404 32.6851 34.2603 32.5463C34.2802 32.4076 34.244 32.2667 34.1597 32.1546C33.496 31.2515 32.5865 30.5577 31.5392 30.1556ZM18.7362 27.5049C18.7362 27.052 18.8708 26.6094 19.1228 26.2328C19.3749 25.8563 19.7332 25.5628 20.1524 25.3896C20.5716 25.2163 21.0329 25.1709 21.4779 25.2593C21.9229 25.3476 22.3317 25.5657 22.6525 25.8859C22.9734 26.2061 23.1918 26.6141 23.2804 27.0582C23.3689 27.5024 23.3235 27.9627 23.1498 28.3811C22.9762 28.7995 22.6821 29.1571 22.3049 29.4086C21.9276 29.6602 21.4841 29.7945 21.0303 29.7945C20.4226 29.7922 19.8404 29.5502 19.4107 29.1213C18.981 28.6925 18.7385 28.1114 18.7362 27.5049ZM27.2068 27.5049C27.2068 27.052 27.3413 26.6094 27.5934 26.2328C27.8455 25.8563 28.2038 25.5628 28.623 25.3896C29.0422 25.2163 29.5035 25.1709 29.9485 25.2593C30.3935 25.3476 30.8023 25.5657 31.1231 25.8859C31.4439 26.2061 31.6624 26.6141 31.751 27.0582C31.8395 27.5024 31.794 27.9627 31.6204 28.3811C31.4468 28.7995 31.1527 29.1571 30.7755 29.4086C30.3982 29.6602 29.9547 29.7945 29.5009 29.7945C28.8932 29.7922 28.311 29.5502 27.8813 29.1213C27.4516 28.6925 27.2091 28.1114 27.2068 27.5049Z" stroke="white" stroke-width="0.2" mask="url(#path-2-outside-1_305_635)"/>
</svg>
