<svg width="68" height="68" viewBox="0 0 68 68" fill="none" xmlns="http://www.w3.org/2000/svg">
<g filter="url(#filter0_d_317_2674)">
<rect x="14" y="14" width="40" height="40" rx="20" fill="white"/>
<path d="M32.707 39.7929C33.0975 40.1834 33.0975 40.8166 32.707 41.2071C32.3164 41.5976 31.6833 41.5976 31.2927 41.2071L25.4998 35.4142C24.7188 34.6332 24.7188 33.3668 25.4998 32.5858L31.2927 26.7929C31.6833 26.4024 32.3164 26.4024 32.707 26.7929C33.0975 27.1834 33.0975 27.8166 32.707 28.2071L27.9141 33H41.9998C42.5521 33 42.9998 33.4477 42.9998 34C42.9998 34.5523 42.5521 35 41.9998 35H27.9141L32.707 39.7929Z" fill="#6F767E"/>
<rect x="14.5" y="14.5" width="39" height="39" rx="19.5" stroke="black" stroke-opacity="0.15"/>
</g>
<defs>
<filter id="filter0_d_317_2674" x="0" y="0" width="68" height="68" filterUnits="userSpaceOnUse" color-interpolation-filters="sRGB">
<feFlood flood-opacity="0" result="BackgroundImageFix"/>
<feColorMatrix in="SourceAlpha" type="matrix" values="0 0 0 0 0 0 0 0 0 0 0 0 0 0 0 0 0 0 127 0" result="hardAlpha"/>
<feOffset/>
<feGaussianBlur stdDeviation="7"/>
<feComposite in2="hardAlpha" operator="out"/>
<feColorMatrix type="matrix" values="0 0 0 0 0 0 0 0 0 0 0 0 0 0 0 0 0 0 0.05 0"/>
<feBlend mode="normal" in2="BackgroundImageFix" result="effect1_dropShadow_317_2674"/>
<feBlend mode="normal" in="SourceGraphic" in2="effect1_dropShadow_317_2674" result="shape"/>
</filter>
</defs>
</svg>
